<svg width="537" height="342" viewBox="0 0 537 342" fill="none" xmlns="http://www.w3.org/2000/svg">
<path d="M50 1H487C491.418 1 495 4.53832 495 8.90244V325H42V8.90244C42 4.53832 45.582 1 50 1Z" stroke="white" stroke-opacity="0.7" stroke-linejoin="round"/>
<path d="M474.148 341.081C410.616 341.081 268.434 341.018 268.434 341.018C268.434 341.018 126.251 341.081 62.7193 341.081C-0.811684 341.081 1.00532 329.125 1.00532 329.125C1.00532 328.877 1.00532 328.474 1.00532 327.838C1.00532 325.184 3.57632 325.015 3.57632 325.015H268.434H533.291C533.291 325.015 535.862 325.184 535.862 327.838C535.862 328.474 535.862 328.877 535.862 329.125C535.862 329.125 537.679 341.081 474.148 341.081Z" stroke="white" stroke-opacity="0.7" stroke-linejoin="round"/>
</svg>
