<svg width="14" height="14" viewBox="0 0 14 14" fill="none" xmlns="http://www.w3.org/2000/svg">
<path d="M12.3408 1H1.65923C1.29515 1 1 1.29515 1 1.65923V12.3408C1 12.7049 1.29515 13 1.65923 13H12.3408C12.7049 13 13 12.7049 13 12.3408V1.65923C13 1.29515 12.7049 1 12.3408 1Z" stroke="#00F0FF"/>
<path d="M1 9.65399L4.02561 7.09062L6.39724 9.24164L9.95864 4.81091L12.979 9.24164" stroke="#00F0FF"/>
<path d="M3.78388 4.75832C4.35394 4.75832 4.81606 4.2962 4.81606 3.72614C4.81606 3.15609 4.35394 2.69397 3.78388 2.69397C3.21383 2.69397 2.75171 3.15609 2.75171 3.72614C2.75171 4.2962 3.21383 4.75832 3.78388 4.75832Z" stroke="#00F0FF"/>
</svg>
