<svg width="14" height="14" viewBox="0 0 14 14" fill="none" xmlns="http://www.w3.org/2000/svg">
<path d="M12.9998 7.14982V12.6831C13.0002 12.7444 12.9883 12.8053 12.965 12.8621C12.9417 12.9188 12.9073 12.9704 12.8639 13.0138C12.8205 13.0572 12.7689 13.0916 12.7121 13.1149C12.6554 13.1382 12.5945 13.1501 12.5332 13.1497H1.46667C1.40529 13.1501 1.34445 13.1382 1.28768 13.1149C1.23091 13.0916 1.17933 13.0572 1.13593 13.0138C1.09253 12.9704 1.05817 12.9188 1.03484 12.8621C1.01151 12.8053 0.999667 12.7444 1.00001 12.6831V1.61657C0.999667 1.55519 1.01151 1.49436 1.03484 1.43758C1.05817 1.38081 1.09253 1.32923 1.13593 1.28583C1.17933 1.24243 1.23091 1.20807 1.28768 1.18474C1.34445 1.16141 1.40529 1.14957 1.46667 1.14991H6.99992" stroke="#00F0FF"/>
<path d="M9.1333 1.1499H12.9999V5.14471" stroke="#00F0FF"/>
<path d="M5.10254 9.20112L11.2563 3.04736" stroke="#00F0FF"/>
</svg>
