<svg width="97" height="120" viewBox="0 0 97 120" fill="none" xmlns="http://www.w3.org/2000/svg">
<path d="M80.584 5.76787C75.432 0.431863 66.232 -1.59213 55.56 2.08786C34.768 9.44787 0.359985 43.4879 0.359985 82.6799C0.359985 97.7679 6.24798 111.568 21.336 117.088C46.36 126.288 69.544 104.76 84.448 77.3439C98.248 51.9519 103.4 15.7039 80.584 5.76787ZM71.016 72.1919C55.56 100.528 33.848 115.248 21.704 110.096C9.19199 104.76 9.55998 73.6639 27.224 46.2479C44.52 19.3839 67.888 6.87187 76.904 10.1839C87.024 13.8639 87.76 41.4639 71.016 72.1919Z" fill="white"/>
</svg>
