<svg width="106" height="182" viewBox="0 0 106 182" fill="none" xmlns="http://www.w3.org/2000/svg">
<path d="M1.35705 162.358C-0.546252 163.957 -0.845851 166.048 3.08735 168.154C53.8276 195.974 94.3846 174.569 102.349 151.975C108.151 135.308 104.934 123.62 93.0736 120.706C75.5746 116.361 39.2815 115.79 33.7454 99.6663C22.9116 68.7325 68.0897 7.74142 79.7467 12.9898C88.0037 16.7663 77.7357 44.2174 77.2477 57.9356C76.6627 71.4102 82.5747 77.8053 89.0357 80.6021C92.7757 82.2213 93.7556 80.4248 94.1056 77.7501C95.1066 70.31 97.2536 55.0896 100.214 44.0563C101.843 37.4942 103.93 25.6792 97.6367 16.8988C93.2316 10.7524 85.6646 4.44862 77.3566 1.25588C66.4256 -2.87087 55.5036 3.70592 45.7379 13.2061C27.72 31.0444 1.24025 74.4916 14.449 107.867C24.3797 132.959 68.8486 132.829 86.0986 138.682C90.6666 140.256 93.9096 144.89 91.5996 151.157C89.4936 155.09 85.0526 158.82 78.2306 161.52C62.3956 167.787 40.8166 161.675 27.9868 157.736C19.2881 154.98 8.43215 156.74 1.35705 162.358Z" fill="white"/>
</svg>
