<svg width="125" height="93" viewBox="0 0 125 93" fill="none" xmlns="http://www.w3.org/2000/svg">
<path d="M124.009 44.4171V48.5751C123.97 48.796 123.928 49.0208 123.889 49.2417C123.687 51.0591 123.544 52.8766 123.265 54.6514C122.316 60.4254 120.238 65.932 117.189 70.9C112.69 78.3674 106.148 84.401 98.3361 88.2762C93.7944 90.5586 88.8691 92.0312 83.8236 92.6164C82.6921 92.7559 81.5644 92.8799 80.4522 93H36.876C36.6552 92.9613 36.4536 92.8992 36.2289 92.8799C31.8499 92.6163 27.5718 91.5662 23.5726 89.7914C14.7915 85.8775 8.25409 79.5571 3.97592 70.8612C2.10034 67.0054 0.868036 62.8667 0.364265 58.6118L0 55.5039V51.466C0.0387516 51.2451 0.100754 51.0204 0.12013 50.7995C0.341014 46.9437 1.12767 43.1693 2.50335 39.5576C6.19638 29.8504 12.6563 22.6426 21.8172 17.9614C26.5216 15.5781 31.6678 14.2257 36.9342 13.9855C39.5383 13.8653 42.1424 13.9855 44.7039 14.3497C44.9674 14.3885 45.2503 14.2877 45.4518 14.1056C49.106 10.2924 53.4036 7.12255 58.1468 4.76257C62.7079 2.46073 67.6526 0.988166 72.7406 0.383641C73.9536 0.244135 75.1626 0.12013 76.3523 0H80.0647C80.3088 0.0387516 80.5685 0.0813785 80.7932 0.100754C82.6494 0.321638 84.4863 0.46502 86.3231 0.786658C91.9537 1.75545 97.3634 3.83254 102.188 6.90166C109.617 11.5441 115.569 18.1823 119.343 26.0953C121.603 30.7378 123.056 35.7445 123.641 40.8713C123.761 42.061 123.885 43.2546 124.005 44.4249L124.009 44.4171ZM54.6591 17.5506C54.7405 17.6514 54.7599 17.7134 54.7987 17.7134C57.3408 19.0038 59.7821 20.4996 62.084 22.1931C62.2235 22.2938 62.5877 22.2551 62.7699 22.1543C69.067 18.0776 75.9299 16.6864 83.2772 17.9963C90.4811 19.3099 96.3559 22.9603 100.836 28.8157C105.9 35.4345 107.838 42.9252 106.447 51.2374C105.497 56.8099 103.296 61.8321 99.5645 66.0134C92.7442 73.6629 84.2034 76.8328 74.1551 75.4998C67.9781 74.6705 62.6304 71.9463 58.2088 67.4046C52.5356 61.5918 46.8236 55.7984 41.1348 49.9857C40.3676 49.199 39.5421 48.5945 38.4493 48.4511C36.5738 48.1876 34.7563 49.1991 33.9697 50.9351C33.2411 52.4697 33.3458 54.2251 34.9385 55.8178C41.2743 62.1537 47.5521 68.5516 53.8919 74.8914C54.9808 75.9803 56.1511 76.9917 57.3834 77.8985C62.0065 81.3086 67.234 83.2075 72.884 83.9748C77.325 84.5599 81.7233 84.4398 86.0828 83.4283C94.4183 81.5295 101.32 77.2126 106.749 70.5318C111.19 65.1027 114.015 58.5421 114.883 51.5784C115.449 47.5211 115.329 43.4057 114.561 39.3678C113.29 32.8071 110.566 26.9362 106.187 21.9295C97.8323 12.3811 87.3151 8.12234 74.8022 9.07175C70.0203 9.47477 65.3778 10.8698 61.1578 13.1678C58.8366 14.3807 56.6781 15.8533 54.6785 17.5467L54.6591 17.5506ZM51.6133 84.1569C51.4311 83.9941 51.2684 83.8352 51.0901 83.6725C48.5054 81.1885 45.9013 78.7084 43.3398 76.1857C42.9174 75.7206 42.309 75.4571 41.6851 75.4804C39.081 75.5424 36.4963 75.5618 33.9348 74.9766C21.2204 72.0509 13.8304 57.984 18.5155 45.6107C22.2085 35.8607 32.4428 29.9279 42.5338 31.7453C47.0561 32.5746 51.032 34.5316 54.2988 37.9417C58.2747 42.1191 62.3513 46.1571 66.3893 50.2957C67.296 51.2258 68.3462 51.6675 69.6173 51.4854C71.2332 51.2413 72.543 50.4546 73.1282 48.8193C73.7133 47.2033 73.4304 45.692 72.2408 44.4597C68.0207 40.1195 63.9053 35.6592 59.5263 31.5012C51.0087 23.4292 40.9798 21.0266 29.8775 24.4561C14.962 29.0792 6.22351 44.7387 9.63365 60.2006C12.7415 74.3101 24.8708 84.1801 39.0422 84.1995H50.9312C51.1134 84.1995 51.3149 84.1801 51.6171 84.1608L51.6133 84.1569Z" fill="white"/>
</svg>
