<svg width="134" height="80" viewBox="0 0 134 80" fill="none" xmlns="http://www.w3.org/2000/svg">
<path d="M24.8703 0.0597273C18.8119 0.0597273 12.6613 2.41619 11.6367 3.70482C11.3694 4.23804 10.7496 8.54758 12.2196 8.54758C12.7096 8.54758 12.9345 8.63263 14.36 7.9661C19.7056 5.87763 23.0926 5.92659 23.5826 5.92659C29.5965 5.34893 33.0701 9.43906 32.5355 14.7269V17.8339C27.4572 16.6341 24.5557 16.5928 23.1302 16.5928C15.7354 16.1485 8.90468 20.0375 8.90468 28.5869C8.90468 37.9628 17.2942 39.9679 20.5461 39.8346C25.4017 39.879 30.036 37.7013 33.1098 33.9243C35.5599 39.3899 37.1197 39.0275 37.1642 39.0275C37.6097 39.0275 37.965 38.8504 38.3214 38.6282L40.862 36.8491C41.3075 36.5825 41.6614 36.1412 41.706 35.608C41.6614 34.3194 39.3439 32.3198 39.5221 27.8318V13.9718C39.7894 10.1504 38.5473 6.41086 35.9636 3.52256C32.8898 0.94531 28.835 -0.295756 24.8703 0.0597273ZM111.172 0.0597273C102.262 0.0597273 97.1431 5.61207 97.2767 11.2554C97.2767 18.9871 105.112 21.438 106.003 21.7046C113.532 24.0597 114.559 24.1451 116.653 25.9225C118.435 27.7444 118.211 31.3016 115.583 32.8568C114.826 33.3012 111.57 35.2529 104.22 33.7421C101.77 33.2533 100.482 32.677 98.4774 31.8328C97.9428 31.655 96.6938 31.3429 96.6938 32.987V35.1654C96.6938 36.1874 97.3157 37.1164 98.2512 37.5607C102.929 39.9158 108.542 40.0082 109.745 40.0082C109.923 40.0082 120.166 40.0136 123.596 33.1172C124.304 31.6953 126.139 26.504 122.709 22.0604C119.858 18.7278 117.407 18.372 110.101 16.1502C109.478 15.9725 104.088 14.5897 104.133 10.8127C103.866 5.96929 110.461 5.70753 111.842 5.7964C117.41 5.70753 120.167 7.7894 121.682 7.92271C122.35 7.92271 122.665 7.52695 122.665 6.63825V4.59005C122.71 4.10126 122.532 3.61872 122.265 3.2188C120.483 0.908165 113.666 0.0597273 111.172 0.0597273ZM43.5505 1.17061C43.0605 1.25948 42.7044 1.74931 42.7935 2.2381C42.8826 2.81576 42.971 3.3962 43.1938 3.97386L53.1734 36.8057C53.3961 37.8721 54.1026 39.0316 55.6617 38.8539H59.316C61.5433 39.0761 61.8555 36.9411 61.9001 36.7189L68.4516 9.34603L75.0902 36.7623C75.1347 36.9845 75.448 39.1195 77.6308 38.8973H81.3285C82.9322 39.075 83.6899 37.9155 83.9126 36.8491C95.1385 0.812004 94.3773 3.26185 94.4664 2.90637C94.6446 1.04008 93.5744 1.16957 93.3963 1.21401H89.4288C87.4242 0.991829 87.0295 2.81784 86.9404 3.2622L79.5449 31.746L72.8628 3.2622C72.551 1.08486 70.7677 1.16957 70.3223 1.21401H66.8942C64.9341 1.03626 64.4438 2.59567 64.3101 3.2622L57.6716 31.3467L50.5458 3.2622C50.3676 2.37349 49.786 0.99287 48.0487 1.17061H43.5505ZM24.6006 21.748C27.808 21.7924 30.5765 22.2757 32.492 22.72C32.492 24.9418 32.5731 26.1881 32.0831 28.1877C31.4594 30.3206 28.7031 34.1913 22.1992 34.2802C18.4573 34.4579 16.0079 31.5203 16.2306 28.1877C16.0079 22.8554 21.5268 21.5258 24.6006 21.748ZM124.91 48.9039C120.752 48.9617 115.844 49.8908 112.12 52.4969C110.971 53.2923 111.172 54.3967 112.451 54.25C116.638 53.7479 125.958 52.6207 127.624 54.7447C129.295 56.8688 125.777 65.6315 124.222 69.5507C123.741 70.7194 124.759 71.2032 125.832 70.3145C132.799 64.4934 134.61 52.2907 133.184 50.5355C132.469 49.6579 129.068 48.8462 124.91 48.9039ZM0.961031 53.3475C-0.0103747 53.4808 -0.428769 54.7089 0.586905 55.682C18.036 72.0076 41.0929 80 66.6941 80C84.9539 80 106.152 74.0571 120.786 62.8594C123.205 60.9976 121.144 58.2078 118.663 59.3098C102.256 66.5305 84.4363 70.0107 68.2167 70.0107C44.1791 70.0107 20.909 65.0049 2.08341 53.6339C1.67135 53.385 1.28483 53.303 0.961031 53.3475Z" fill="white"/>
</svg>
