<svg width="92" height="92" viewBox="0 0 92 92" fill="none" xmlns="http://www.w3.org/2000/svg">
<g clip-path="url(#clip0)">
<path d="M79.2221 92H12.7778C11.9129 92.0002 11.0501 91.9132 10.2027 91.7404C8.56831 91.4057 7.01583 90.7525 5.63382 89.818C3.57943 88.4314 1.97129 86.4787 1.00425 84.1965C0.677458 83.4235 0.428019 82.6199 0.259588 81.7977C0.0867432 80.9501 -0.000225341 80.0872 4.38474e-07 79.2221V12.7778C-0.000193261 11.9129 0.0867752 11.0501 0.259588 10.2027C0.594326 8.56793 1.24777 7.01513 2.1826 5.63291C3.56951 3.57874 5.52235 1.97084 7.80453 1.004C8.57739 0.677338 9.38069 0.427986 10.2027 0.259587C11.0501 0.0867647 11.9129 -0.000203861 12.7778 3.58823e-07H79.2221C80.0872 -0.000193862 80.9501 0.0867744 81.7977 0.259587C83.4322 0.594206 84.9848 1.24742 86.367 2.18195C88.4213 3.56859 90.0293 5.52134 90.996 7.8035C91.3227 8.5767 91.5721 9.38034 91.7404 10.2027C91.9132 11.0503 92.0002 11.9132 92 12.7783V79.2221C92.0002 80.0872 91.9132 80.9501 91.7404 81.7977C91.4058 83.4322 90.7526 84.9848 89.818 86.367C88.4314 88.4213 86.4786 90.0293 84.1964 90.996C83.4233 91.3227 82.6199 91.572 81.7977 91.7404C80.9501 91.9132 80.0872 92.0002 79.2221 92ZM22.9999 15.3333V76.6667H49.6544C51.3557 76.66 53.0552 76.5532 54.744 76.3468C56.2382 76.1641 57.7167 75.8705 59.1674 75.4686C60.4628 75.1089 61.7222 74.6305 62.9296 74.0394C64.0336 73.4967 65.075 72.8351 66.0354 72.0664C66.9431 71.3183 67.7544 70.4601 68.4504 69.5117C69.1497 68.5506 69.729 67.5076 70.1754 66.406C70.6497 65.2258 70.9967 63.9983 71.2104 62.7444C71.4466 61.3495 71.562 59.9369 71.5554 58.5222C71.5571 57.7211 71.5058 56.9207 71.4017 56.1264C71.3033 55.381 71.1486 54.6442 70.9388 53.9222C70.7368 53.231 70.4776 52.5579 70.1639 51.9097C69.8544 51.2724 69.4904 50.6632 69.0759 50.0887C68.6637 49.5177 68.2005 48.9854 67.6919 48.4982C67.1801 48.0097 66.6255 47.568 66.0348 47.1785C65.4233 46.7767 64.7792 46.4268 64.1094 46.1324C63.3999 45.8213 62.6682 45.5636 61.9203 45.3614C62.488 45.1232 63.0244 44.8163 63.5175 44.4478C64.0871 44.0368 64.6204 43.5778 65.1116 43.0757C65.7679 42.404 66.3594 41.6719 66.8782 40.8891C67.2315 40.3228 67.5406 39.73 67.8026 39.116C68.0711 38.4847 68.2928 37.8344 68.4659 37.1706C68.8308 35.7298 69.0101 34.2484 68.9994 32.7622C69.0058 31.4594 68.8805 30.1593 68.6257 28.8817C68.3892 27.7087 68.0127 26.5684 67.5044 25.4851C67.0089 24.4397 66.3808 23.4624 65.6356 22.5774C64.8648 21.6694 63.9863 20.8587 63.0194 20.1632C62.0235 19.4347 60.9787 18.7755 59.8924 18.1903C58.7508 17.5789 57.5578 17.0686 56.3271 16.6654C53.5974 15.7689 50.5118 15.3333 46.894 15.3333H22.9999ZM51.111 66.4444H38.3333V51.111H51.111C52.1205 51.1069 53.1208 51.3021 54.0546 51.6856C54.9884 52.069 55.8373 52.6331 56.5526 53.3454C57.2678 54.0577 57.8354 54.9043 58.2226 55.8365C58.6099 56.7687 58.8092 57.7682 58.8092 58.7777C58.8092 59.7872 58.6099 60.7867 58.2226 61.7189C57.8354 62.6511 57.2678 63.4977 56.5526 64.21C55.8373 64.9223 54.9884 65.4864 54.0546 65.8698C53.1208 66.2533 52.1205 66.4485 51.111 66.4444ZM49.1943 39.6111H38.333V25.5555H49.1943C50.5951 25.5529 51.9644 25.9707 53.1251 26.7549C54.2548 27.5172 55.139 28.591 55.6703 29.8461C56.1261 30.9235 56.3056 32.0976 56.1925 33.262C56.0794 34.4263 55.6774 35.544 55.0228 36.5136C54.2604 37.6434 53.1864 38.5276 51.9312 39.0588C51.0653 39.425 50.1345 39.6129 49.1943 39.6111Z" fill="white"/>
</g>
<defs>
<clipPath id="clip0">
<rect width="92" height="92" fill="white"/>
</clipPath>
</defs>
</svg>
