<svg width="97" height="97" viewBox="0 0 97 97" fill="none" xmlns="http://www.w3.org/2000/svg">
<path d="M39 34.5C39 38.7409 39 47.9454 39 52.0063C39 53.1109 38.1107 54 37.0061 54C32.8961 54 23.5298 54 19.5 54C8.73045 54 0 45.2696 0 34.5C0 23.7304 8.73045 15 19.5 15C30.2696 15 39 23.7304 39 34.5Z" fill="white"/>
<path d="M62.5 39C58.2591 39 49.0546 39 44.9936 39C43.8891 39 43 38.1107 43 37.0061C43 32.8961 43 23.5298 43 19.5C43 8.73045 51.7304 -1.32312e-06 62.5 -8.52372e-07C73.2696 -3.8162e-07 82 8.73045 82 19.5C82 30.2696 73.2696 39 62.5 39Z" fill="white"/>
<path d="M58 62.5C58 58.2591 58 49.0546 58 44.9936C58 43.8891 58.8893 43 59.9939 43C64.1039 43 73.4702 43 77.5 43C88.2696 43 97 51.7304 97 62.5C97 73.2696 88.2696 82 77.5 82C66.7304 82 58 73.2695 58 62.5Z" fill="white"/>
<path d="M34.5 58C38.7409 58 47.9454 58 52.0063 58C53.1109 58 54 58.8893 54 59.9939C54 64.1039 54 73.4702 54 77.5C54 88.2696 45.2696 97 34.5 97C23.7304 97 15 88.2696 15 77.5C15 66.7304 23.7304 58 34.5 58Z" fill="white"/>
</svg>
