<svg width="90" height="100" viewBox="0 0 90 100" fill="none" xmlns="http://www.w3.org/2000/svg">
<path d="M88.1094 1.38982C87.3164 0.505008 86.1853 0 85 0H4.17363C2.98832 0 1.85727 0.505008 1.06428 1.38982C0.271292 2.27462 -0.104334 3.45576 0.025048 4.63272L9.21537 87.3665C9.39901 89.0484 10.5885 90.4549 12.2162 90.9182L43.4349 99.8372C43.8105 99.9457 44.1987 100 44.5826 100C44.9666 100 45.3548 99.9457 45.7304 99.8372L76.9491 90.9182C78.5768 90.4549 79.7621 89.0484 79.9499 87.3665L89.1444 4.63272C89.278 3.45576 88.9024 2.27462 88.1094 1.38982ZM67.6085 42.0451L65.7471 72.4499L44.7204 79.3239L23.6937 72.4499L22.8965 57.909H33.5392L33.8064 64.52L44.7204 68.222L55.6344 64.52L56.4316 52.6252H33.0092L32.4791 42.0493H56.9658L57.763 31.4733H21.0309L20.2337 20.8932H68.9399L67.6085 42.0451Z" fill="white"/>
</svg>
