<svg width="69" height="100" viewBox="0 0 69 100" fill="none" xmlns="http://www.w3.org/2000/svg">
<path d="M22.4138 0C11.9552 0 3.44828 8.5069 3.44828 18.9655C3.44828 24.6825 6.00176 29.804 10.0148 33.2839C4.05989 36.4861 0 42.7776 0 50C0 56.4159 3.21261 62.0837 8.1021 65.5172C3.21261 68.9508 0 74.6185 0 81.0345C0 91.4931 8.5069 100 18.9655 100C29.4241 100 37.931 91.4931 37.931 81.0345V62.069V37.931H50C60.4586 37.931 68.9655 29.4241 68.9655 18.9655C68.9655 8.5069 60.4586 0 50 0H22.4138ZM22.4138 6.89655H50C56.6552 6.89655 62.069 12.3103 62.069 18.9655C62.069 25.6207 56.6552 31.0345 50 31.0345H37.931H22.4138C15.7586 31.0345 10.3448 25.6207 10.3448 18.9655C10.3448 12.3103 15.7586 6.89655 22.4138 6.89655ZM18.9655 37.931H22.4138H31.0345V62.069H18.9655C12.3103 62.069 6.89655 56.6552 6.89655 50C6.89655 43.3448 12.3103 37.931 18.9655 37.931ZM51.7241 37.931C48.066 37.931 44.5577 39.3842 41.9709 41.9709C39.3842 44.5576 37.931 48.066 37.931 51.7241C37.931 55.3823 39.3842 58.8906 41.9709 61.4773C44.5577 64.064 48.066 65.5172 51.7241 65.5172C55.3823 65.5172 58.8906 64.064 61.4773 61.4773C64.064 58.8906 65.5172 55.3823 65.5172 51.7241C65.5172 48.066 64.064 44.5576 61.4773 41.9709C58.8906 39.3842 55.3823 37.931 51.7241 37.931ZM18.9655 68.9655H31.0345V81.0345C31.0345 87.6897 25.6207 93.1034 18.9655 93.1034C12.3103 93.1034 6.89655 87.6897 6.89655 81.0345C6.89655 74.3793 12.3103 68.9655 18.9655 68.9655Z" fill="white"/>
</svg>
