<svg width="104" height="100" viewBox="0 0 104 100" fill="none" xmlns="http://www.w3.org/2000/svg">
<g clip-path="url(#clip0)">
<path d="M36.4673 100C35.1594 99.6046 33.8511 99.151 32.579 98.6513C31.3172 98.1562 30.0591 97.604 28.8397 97.01C27.6287 96.4199 26.4251 95.7738 25.2632 95.0898C24.1072 94.4092 22.9635 93.674 21.8637 92.9047C15.2245 88.2617 9.78055 82.1331 5.97251 75.0149C5.33725 73.827 4.74329 72.5995 4.20571 71.3668C3.66455 70.1248 3.16766 68.8459 2.72894 67.5658C0.915365 62.2654 -0.0066907 56.7051 -0.000271893 51.1077C-0.000164307 49.3626 0.0886193 47.6186 0.265741 45.8823C0.440298 44.1788 0.700814 42.4851 1.04631 40.8075C1.38597 39.1609 1.81298 37.5131 2.31573 35.9097C2.81281 34.3243 3.39566 32.7443 4.04808 31.2141C4.69436 29.6976 5.4242 28.195 6.21738 26.7466C7.0048 25.3089 7.87291 23.8909 8.7981 22.5328C9.71842 21.1812 10.7162 19.8575 11.7636 18.5984C12.8086 17.3422 13.9275 16.1211 15.0888 14.9691C16.2501 13.817 17.4809 12.7073 18.7471 11.6702C20.0164 10.6311 21.3506 9.64121 22.7128 8.72817C24.0817 7.8107 25.5107 6.94936 26.9603 6.16788C28.4203 5.38108 29.9354 4.65701 31.4635 4.01576C33.0059 3.3685 34.5983 2.79037 36.1965 2.29722C37.8127 1.79855 39.4737 1.37482 41.1334 1.03785C42.8241 0.69542 44.531 0.437262 46.2477 0.264347C49.7502 -0.0874647 53.2795 -0.0874647 56.782 0.264347C58.4991 0.437519 60.2063 0.695973 61.8973 1.03874C63.557 1.37571 65.218 1.79934 66.8342 2.2981C68.4323 2.79125 70.0249 3.36948 71.5672 4.01665C73.095 4.6582 74.61 5.38197 76.07 6.16877C77.5192 6.94995 78.9485 7.81129 80.3175 8.72906C81.6797 9.64209 83.0141 10.6319 84.2833 11.6711C85.5495 12.7078 86.7803 13.8178 87.9415 14.97C89.1028 16.1221 90.2215 17.3431 91.2667 18.5993C92.3143 19.8585 93.312 21.1823 94.2323 22.5336C95.157 23.8917 96.0253 25.3094 96.813 26.7475C97.606 28.1958 98.3359 29.6989 98.9823 31.215C99.6346 32.7452 100.217 34.3249 100.715 35.9106C101.217 37.5141 101.644 39.162 101.984 40.8084C102.33 42.4859 102.59 44.1795 102.765 45.8829C102.942 47.619 103.03 49.3628 103.03 51.1077C103.036 56.6627 102.128 62.1814 100.341 67.446C99.909 68.7178 99.4194 69.9886 98.886 71.223C98.3566 72.4483 97.7709 73.6685 97.1451 74.8498C92.1198 84.3286 84.2307 92.0097 74.5836 96.8164C73.3796 97.4157 72.137 97.9743 70.8904 98.4767C69.634 98.9831 68.3417 99.4453 67.0491 99.8504C66.7068 99.7251 66.3775 99.5671 66.0659 99.3787C65.7578 99.195 65.4707 98.9787 65.2096 98.7336C64.9693 98.5118 64.7652 98.2544 64.6046 97.9704C64.4599 97.7183 64.3811 97.4342 64.3753 97.1442V82.32C64.3769 80.6772 64.054 79.0499 63.4247 77.5303C63.1203 76.7961 62.7477 76.0917 62.3117 75.4259C61.8787 74.7653 61.3862 74.1448 60.8405 73.5721C62.6328 73.3642 64.4122 73.0588 66.1707 72.6574C67.7655 72.2933 69.332 71.8162 70.858 71.2295C71.5847 70.9462 72.29 70.6366 72.9541 70.3095C73.6248 69.979 74.2734 69.6209 74.8817 69.2449C75.4883 68.8707 76.0747 68.4654 76.6386 68.0305C77.1914 67.6034 77.7198 67.146 78.2214 66.6606C79.223 65.6903 80.1068 64.6073 80.8551 63.4335C81.239 62.8308 81.5881 62.2071 81.9009 61.5653C82.2247 60.8995 82.5123 60.2168 82.7623 59.5204C83.018 58.8099 83.245 58.0605 83.4373 57.2931C83.6304 56.5214 83.7935 55.7089 83.9225 54.8783C84.052 54.0433 84.1508 53.1659 84.2155 52.2703C84.2807 51.3705 84.3138 50.4263 84.3138 49.4638C84.3165 48.044 84.1933 46.6266 83.9455 45.2282C83.7104 43.9137 83.3529 42.6237 82.8775 41.3748C82.4162 40.1692 81.8429 39.0088 81.1651 37.9086C80.491 36.8182 79.7208 35.7892 78.8635 34.8339C79.0765 34.3599 79.2586 33.8729 79.4086 33.3758C79.5939 32.7587 79.731 32.1284 79.8186 31.4904C79.9162 30.8042 79.9716 30.1127 79.9847 29.4198C79.995 28.8391 79.9697 28.2584 79.909 27.6807C79.7965 26.6098 79.5776 25.691 79.3659 24.8023C79.3424 24.7039 79.3191 24.6056 79.2958 24.5075C79.044 23.4237 78.7215 22.3572 78.3305 21.3147C78.3269 21.3147 77.9159 21.2736 77.3037 21.2736C76.4203 21.2736 75.1213 21.3569 73.946 21.7541C73.7683 21.8142 73.587 21.8749 73.427 21.9285C72.5225 22.2315 71.6682 22.5177 70.7485 22.8989C69.6998 23.3349 68.6844 23.8461 67.7105 24.4283C66.7576 24.9919 65.6573 25.6846 64.4409 26.4869C62.3943 25.9286 60.3104 25.5149 58.2049 25.2488C55.9821 24.968 53.7435 24.8285 51.5028 24.8312C49.2424 24.8283 46.9841 24.9686 44.7418 25.251C42.62 25.5181 40.5201 25.9343 38.4577 26.4965C37.2418 25.6934 36.1357 24.9965 35.17 24.4251C34.1959 23.8428 33.1805 23.3315 32.1317 22.8953C31.212 22.5141 30.3575 22.2279 29.4529 21.9249L29.449 21.9236C29.2813 21.8674 29.1078 21.8093 28.9344 21.7507C27.7591 21.3535 26.46 21.2701 25.577 21.2701C24.9697 21.2701 24.5668 21.3095 24.55 21.3113C24.159 22.3537 23.8366 23.4202 23.5846 24.504C23.5615 24.6021 23.5382 24.7003 23.5147 24.7987C23.3029 25.6875 23.0842 26.6064 22.9716 27.6773C22.9109 28.2549 22.8857 28.8357 22.896 29.4164C22.9091 30.1093 22.9645 30.8008 23.062 31.4871C23.2211 32.6634 23.5524 33.8103 24.0455 34.8917C23.2033 35.8426 22.4475 36.8656 21.787 37.9486C21.1208 39.0443 20.5581 40.1986 20.106 41.3969C19.6388 42.6417 19.2878 43.9264 19.0574 45.2349C18.8139 46.6306 18.6929 48.0445 18.6958 49.4609C18.6958 50.4097 18.7284 51.3412 18.7929 52.2295C18.8572 53.1144 18.9547 53.9824 19.083 54.8082C19.2106 55.6309 19.3724 56.4361 19.5637 57.2011C19.7541 57.9631 19.9793 58.7078 20.2329 59.4137C20.4813 60.1072 20.7669 60.787 21.0884 61.4502C21.3995 62.0908 21.7466 62.7134 22.1281 63.3153C22.8736 64.4904 23.7539 65.5757 24.7514 66.5496C25.2518 67.0377 25.779 67.498 26.3306 67.9282C26.8937 68.3668 27.4794 68.7759 28.0854 69.154C28.6939 69.5342 29.3426 69.8968 30.0135 70.2316C30.6785 70.5636 31.3851 70.8778 32.1127 71.1656C33.6431 71.7628 35.215 72.2493 36.8161 72.6216C38.5845 73.0325 40.3746 73.3455 42.178 73.559C41.2908 74.4891 40.552 75.5482 39.9871 76.6996C39.4099 77.8776 39.0174 79.1361 38.8234 80.4317C37.6115 80.9598 36.5184 81.2983 35.5744 81.4381C34.8171 81.5504 34.0524 81.6064 33.2867 81.6055C32.3211 81.609 31.3577 81.5166 30.4107 81.3298C29.54 81.1515 28.8035 80.8947 28.2808 80.5874C27.8826 80.3467 27.5062 80.0723 27.1559 79.7672C26.7491 79.4165 26.3617 79.0443 25.9952 78.6523C25.2071 77.8082 24.4831 76.9072 23.8294 75.9567C23.2551 75.1185 22.6158 74.326 21.9172 73.5865C21.1337 72.7717 20.406 72.2088 19.754 71.9135C18.3023 71.2556 16.7487 70.8629 15.5981 70.8629C15.4096 70.8617 15.2213 70.8749 15.0349 70.9023C14.7656 70.9411 14.5072 71.0347 14.2761 71.1772C14.0903 71.2912 13.935 71.4481 13.8235 71.6345C13.7576 71.7386 13.7165 71.8564 13.7033 71.9787C13.6902 72.101 13.7053 72.2247 13.7476 72.3403C13.8493 72.593 14.1366 72.9173 14.5786 73.278C15.04 73.6472 15.5339 73.9745 16.0545 74.2558C16.5849 74.5448 17.2744 75.0928 17.9461 75.7586C18.6306 76.4305 19.2377 77.1759 19.7561 77.9809C20.4589 79.1051 20.7994 79.935 21.1936 80.8957C21.402 81.4041 21.6386 81.9802 21.9548 82.6626C22.2448 83.289 22.8857 84.047 23.8079 84.8547C24.5999 85.5442 25.4513 86.1637 26.3522 86.706C26.9956 87.0894 27.9632 87.4067 29.2283 87.6491C30.5642 87.8906 31.9157 88.0381 33.2726 88.0903C33.342 88.0936 33.4205 88.0951 33.5051 88.0951C34.407 88.0951 36.133 87.9165 38.6353 87.5642V97.1417C38.6314 97.4304 38.5711 97.7156 38.4577 97.9814C38.3369 98.2689 38.1765 98.5385 37.9813 98.7825C37.5748 99.2957 37.0574 99.7119 36.4673 100Z" fill="white"/>
</g>
<defs>
<clipPath id="clip0">
<rect width="103.03" height="100" fill="white"/>
</clipPath>
</defs>
</svg>
