<svg width="90" height="100" viewBox="0 0 90 100" fill="none" xmlns="http://www.w3.org/2000/svg">
<path d="M88.716 0.704824C88.3084 0.254757 87.7224 0 87.111 0H2.17556C1.56415 0 0.978213 0.254757 0.570605 0.704824C0.154502 1.15489 -0.0493018 1.75781 0.0101417 2.36923L7.66129 88.0775C7.73772 88.9776 8.36612 89.7249 9.23229 89.9796L44.0404 99.9151C44.2272 99.9745 44.431 100 44.6348 100C44.8386 100 45.0339 99.9745 45.2292 99.9151L80.0628 89.9796C80.929 89.7249 81.5489 88.9776 81.6338 88.0775L89.2764 2.36923C89.3359 1.75781 89.1321 1.15489 88.716 0.704824ZM70.3991 30.2565H29.5023L30.4789 41.3213H69.414L66.4928 74.0234L44.6263 80.6301L44.414 80.5622L22.8023 74.0149L21.6219 60.6912H32.2112L32.6698 65.8628L44.7537 68.3933L56.6168 65.8628L57.8821 51.8682H20.8321L17.9534 19.6841H71.3417L70.3991 30.2565Z" fill="white"/>
</svg>
