<svg width="104" height="100" viewBox="0 0 104 100" fill="none" xmlns="http://www.w3.org/2000/svg">
<path d="M6.5881 23.4856C-2.59629 36.6949 -1.45361 53.8802 5.56223 67.9154C5.72862 68.2528 5.90492 68.5824 6.07682 68.9143C6.18701 69.1238 6.28949 69.3399 6.40519 69.5461C6.4702 69.6696 6.54182 69.792 6.61014 69.91C6.72915 70.1327 6.85256 70.3466 6.97597 70.5638C7.19305 70.9497 7.41674 71.3312 7.64483 71.7139C7.77155 71.9234 7.89717 72.1339 8.02719 72.3434C8.27953 72.7525 8.53958 73.1561 8.80514 73.5607C8.91533 73.7327 9.02221 73.9047 9.13571 74.0723C9.50154 74.6181 9.87619 75.1617 10.2608 75.6987L10.2927 75.7417C10.3544 75.8277 10.4205 75.9104 10.4833 75.9964C10.8172 76.4573 11.161 76.9116 11.5092 77.3614C11.637 77.5246 11.766 77.69 11.896 77.8532C12.326 78.3919 12.7628 78.9253 13.2062 79.4531C13.6461 79.9731 14.095 80.4856 14.5527 80.9901C14.5725 81.0122 14.5879 81.0243 14.6034 81.0464C15.5216 82.0432 16.4708 83.0111 17.4496 83.9484C17.5973 84.0885 17.7427 84.2318 17.8882 84.3652C18.377 84.8269 18.8745 85.2794 19.3801 85.7225C19.465 85.7975 19.552 85.8692 19.6358 85.9409C20.0732 86.3213 20.5206 86.6984 20.9691 87.0677C21.152 87.2166 21.3382 87.3621 21.5222 87.5088C21.8892 87.8032 22.2605 88.0932 22.6352 88.3787L23.2291 88.8308C23.6423 89.134 24.0577 89.4339 24.4776 89.7272C24.6318 89.8375 24.7784 89.9444 24.9326 90.0492C24.9756 90.079 25.0142 90.1098 25.0572 90.1385C25.4549 90.4131 25.8627 90.6766 26.2693 90.9412C26.4445 91.057 26.6175 91.1783 26.7949 91.2907C27.4185 91.6866 28.0532 92.0769 28.6935 92.454C28.8665 92.5543 29.0428 92.6514 29.218 92.7506C29.6896 93.0229 30.1623 93.2887 30.6427 93.5511C30.9017 93.6911 31.1694 93.8223 31.4306 93.9569C31.77 94.1344 32.1061 94.3152 32.451 94.4872C32.5281 94.5247 32.6096 94.5622 32.6868 94.6008C32.8245 94.668 32.9644 94.732 33.1033 94.8026C33.751 95.1143 34.4038 95.4154 35.0614 95.7056C35.6839 95.9768 36.312 96.2382 36.9456 96.4885C37.0977 96.5513 37.2509 96.6097 37.404 96.6693C38.067 96.9256 38.7341 97.1712 39.4051 97.4058C40.0607 97.6352 40.7219 97.8469 41.3885 98.0553C41.5472 98.1016 41.707 98.1523 41.8678 98.1986C42.5455 98.4037 43.2166 98.6474 43.9141 98.7764C88.333 106.882 101.235 72.0667 101.235 72.0667C90.3991 86.1934 71.1642 89.918 52.9398 85.7711C52.25 85.6145 51.58 85.3995 50.9057 85.1999C50.0783 84.9541 49.2565 84.6902 48.4407 84.4082L48.1718 84.3112C47.5932 84.1061 47.0176 83.8925 46.4452 83.6706C46.2843 83.6055 46.1223 83.5449 45.9614 83.4798C45.3354 83.2326 44.7138 82.9741 44.097 82.7047C43.9714 82.6507 43.8491 82.5933 43.7246 82.5404C43.0446 82.2325 42.3687 81.9157 41.697 81.59C41.2882 81.3904 40.8849 81.1787 40.4805 80.9703C40.2106 80.828 39.9362 80.6935 39.6684 80.5447C39.1777 80.2806 38.6917 80.0079 38.2106 79.7265C38.0486 79.635 37.8822 79.5468 37.7192 79.452C37.0798 79.0741 36.4464 78.6859 35.8195 78.2876C35.6476 78.1774 35.4779 78.0605 35.3071 77.9458C34.8522 77.6533 34.4018 77.3537 33.9562 77.0472C33.8074 76.948 33.6653 76.8399 33.5198 76.7418C33.0901 76.4385 32.6658 76.1298 32.2427 75.8178C32.051 75.6755 31.8625 75.5311 31.6763 75.3889C31.1156 74.9574 30.5599 74.5197 30.0091 74.0756C29.5251 73.679 29.0469 73.2754 28.5744 72.865L28.4158 72.7327C27.9059 72.2829 27.403 71.8252 26.9073 71.3599C26.7629 71.2221 26.623 71.0887 26.4819 70.9508C26.1145 70.6023 25.753 70.2476 25.3976 69.8868C25.2555 69.7446 25.1123 69.6046 24.9723 69.4623C24.5205 68.9992 24.0776 68.5295 23.6423 68.0543L23.5762 67.9848C23.1166 67.481 22.6666 66.9686 22.2264 66.4478C22.1074 66.3044 21.9906 66.1677 21.8726 66.0277C21.5436 65.6315 21.22 65.2309 20.9019 64.8258C20.7818 64.6792 20.6632 64.5315 20.546 64.3826C20.1636 63.8864 19.79 63.3913 19.4242 62.8885C9.30541 49.0794 5.67132 30.0307 13.7571 14.3879" fill="white"/>
<path d="M35.0978 12.357C28.4566 21.9211 28.8169 34.7246 33.9981 44.84C34.8655 46.5404 35.847 48.18 36.9358 49.7477C37.9308 51.1745 39.0338 52.8725 40.355 54.0203C40.8343 54.5485 41.3346 55.0623 41.8459 55.5684C41.9748 55.7007 42.107 55.8264 42.2382 55.9565C42.734 56.4383 43.2387 56.9125 43.761 57.3722C43.783 57.3888 43.8018 57.4097 43.8227 57.4263C43.8293 57.4318 43.8348 57.434 43.8381 57.4406C44.4144 57.9467 45.0106 58.4341 45.6166 58.9126C45.751 59.0151 45.8833 59.1221 46.0199 59.2279C46.626 59.6932 47.2452 60.1508 47.8799 60.5875C47.8998 60.6007 47.9152 60.6139 47.9339 60.6283C48.2138 60.8223 48.4992 61.002 48.7835 61.1884C48.919 61.2766 49.0479 61.3714 49.1857 61.4541C49.6386 61.7452 50.097 62.0286 50.5642 62.2998C50.6314 62.3406 50.6942 62.3748 50.7592 62.4134C51.1614 62.6449 51.5691 62.8732 51.9779 63.0937C52.1212 63.1742 52.2655 63.2448 52.4121 63.3197C52.6942 63.4686 52.9773 63.6185 53.2638 63.7608C53.3068 63.7828 53.3509 63.8016 53.3928 63.8203C53.9779 64.1092 54.5674 64.3871 55.1701 64.6495C55.2991 64.7068 55.4324 64.7575 55.5624 64.8105C56.0451 65.0155 56.531 65.2151 57.0202 65.4026C57.2274 65.4809 57.4379 65.5569 57.6439 65.6319C58.088 65.7962 58.5343 65.9473 58.9827 66.0983C59.1866 66.1634 59.3849 66.2295 59.5888 66.2924C60.2268 66.4908 60.8582 66.7411 61.5237 66.8525C95.8184 72.5376 103.737 46.1157 103.737 46.1157C96.5985 56.4019 82.7773 61.3086 68.0294 57.4781C67.1799 57.2544 66.3376 57.004 65.5038 56.7272C64.8402 56.5124 64.1825 56.2796 63.5314 56.0293C63.0405 55.8413 62.5531 55.6446 62.0692 55.4394C61.938 55.3831 61.8047 55.3313 61.6758 55.2729C61.0731 55.01 60.4768 54.7328 59.8874 54.4415C59.5844 54.2938 59.2869 54.1372 58.9904 53.9839L58.4725 53.7171C58.0908 53.5096 57.7125 53.2961 57.3376 53.0765C57.2483 53.0257 57.1558 52.9761 57.0654 52.9232C56.6015 52.6509 56.1442 52.3719 55.6913 52.083C55.5514 51.9937 55.417 51.8978 55.277 51.8063C54.9779 51.6126 54.6808 51.4159 54.3856 51.2164C53.7574 50.7787 53.1394 50.3265 52.5322 49.8601C52.3922 49.7499 52.2523 49.6418 52.1145 49.5316C45.6585 44.4309 40.5412 37.4613 38.1082 29.5578C35.5584 21.3609 36.1083 12.1596 40.5258 4.69275" fill="white"/>
<path d="M59.0764 4.04218C55.1613 9.80773 54.7768 16.9692 57.493 23.3379C60.359 30.0969 66.23 35.4005 73.0816 37.9144C73.3637 38.0203 73.6469 38.114 73.9323 38.211C74.0568 38.2485 74.1813 38.2926 74.3081 38.329C74.7114 38.4558 75.1114 38.6036 75.529 38.6818C94.4652 42.3425 99.6012 28.959 100.969 26.9886C96.4696 33.4709 88.9083 35.0267 79.6314 32.774C78.8724 32.5794 78.1233 32.348 77.3868 32.0805C76.4795 31.7582 75.5897 31.3883 74.7213 30.9724C73.0728 30.1787 71.5074 29.2228 70.0481 28.1188C61.7463 21.8163 56.5894 9.7923 62.0064 0L59.0764 4.04218Z" fill="white"/>
</svg>
