<svg width="89" height="100" viewBox="0 0 89 100" fill="none" xmlns="http://www.w3.org/2000/svg">
<path d="M88.2093 0.706522C87.7986 0.256522 87.2215 0 86.6141 0H2.16146C1.55409 0 0.976976 0.256522 0.566298 0.706522C0.15562 1.15652 -0.0453955 1.76087 0.00864106 2.36739L7.61699 88.0783C7.69696 88.9739 8.3173 89.7283 9.17756 89.9761L43.7826 99.9174C43.9749 99.9717 44.176 100 44.3748 100C44.5737 100 44.7747 99.9717 44.9671 99.9174L79.6023 89.9761C80.4626 89.7283 81.0829 88.9739 81.1629 88.0783L88.7669 2.36739C88.821 1.76087 88.6178 1.15652 88.2093 0.706522ZM16.2888 58.7043L31.419 62.9261V19.5652H40.0649V76.087L16.2888 69.4543V58.7043ZM72.6035 43.4783L70.3253 70.1087L48.7107 76.087V66.0848L63.3006 62.0522L63.8409 53.9L48.7107 56.5217V19.5652H74.6483L73.9025 28.2609H57.3566V45.6522L72.6035 43.4783Z" fill="white"/>
</svg>
