<svg width="102" height="100" viewBox="0 0 102 100" fill="none" xmlns="http://www.w3.org/2000/svg">
<path d="M0.965857 34.8716C0.965857 34.8716 -1.50674 33.0969 1.46038 30.7273L8.37334 24.5724C8.37334 24.5724 10.3514 22.5002 12.4428 24.3057L76.2358 72.396V95.4564C76.2358 95.4564 76.2048 99.0776 71.5378 98.6775L0.965857 34.8716Z" fill="white"/>
<path d="M17.4086 49.7356L0.965826 64.6202C0.965826 64.6202 -0.723781 65.8717 0.965826 68.108L8.59996 75.022C8.59996 75.022 10.4132 76.9608 13.0918 74.7553L30.5236 61.5941L17.4086 49.7356Z" fill="white"/>
<path d="M46.2761 49.8588L76.4315 26.9318L76.2358 3.99448C76.2358 3.99448 74.9479 -1.01151 70.6518 1.59407L30.5237 37.9593L46.2761 49.8588Z" fill="white"/>
<path d="M71.5379 98.7082C73.2893 100.493 75.4116 99.9084 75.4116 99.9084L98.9115 88.3782C101.92 86.3368 101.497 83.803 101.497 83.803V14.9501C101.497 11.9239 98.3861 10.8776 98.3861 10.8776L78.0181 1.10157C73.5675 -1.63737 70.6519 1.59396 70.6519 1.59396C70.6519 1.59396 74.402 -1.09368 76.2358 3.99437V95.0357C76.2358 95.6615 76.1019 96.277 75.834 96.8309C75.2983 97.908 74.1341 98.9133 71.3421 98.4928L71.5379 98.7082Z" fill="white"/>
</svg>
