<svg width="100" height="100" viewBox="0 0 100 100" fill="none" xmlns="http://www.w3.org/2000/svg">
<path d="M50 0C22.4398 0 0 22.4398 0 50C0 77.5602 22.4398 100 50 100C77.5602 100 100 77.5602 100 50C100 22.4398 77.5602 0 50 0ZM50 2.28916C76.2952 2.28916 97.7108 23.7048 97.7108 50C97.7108 76.2952 76.2952 97.7108 50 97.7108C23.7048 97.7108 2.28916 76.2952 2.28916 50C2.28916 23.7048 23.7048 2.28916 50 2.28916ZM50 7.10843C35.0151 7.10843 21.8825 14.744 14.2169 26.3855C15.2259 26.4157 16.1747 26.506 16.988 26.506C21.4759 26.506 28.4337 25.9036 28.4337 25.9036C30.738 25.7681 30.9789 29.247 28.6747 29.5181C28.6747 29.5181 26.3102 29.744 23.7349 29.8795L39.3976 76.2651L48.7952 48.1928L42.0482 29.8795C39.744 29.744 37.5904 29.5181 37.5904 29.5181C35.2711 29.3825 35.5271 25.7681 37.8313 25.9036C37.8313 25.9036 44.9398 26.506 49.1566 26.506C53.6446 26.506 60.6024 25.9036 60.6024 25.9036C62.9217 25.7681 63.1476 29.247 60.8434 29.5181C60.8434 29.5181 58.4789 29.744 55.9036 29.8795L71.4458 75.9036L75.6627 61.6867C77.8313 56.1145 78.9157 51.506 78.9157 47.8313C78.9157 42.5301 77.0632 38.8705 75.4217 36.0241C73.253 32.4849 71.2048 29.4428 71.2048 25.9036C71.2048 21.9729 74.2169 18.3133 78.4337 18.3133C78.6295 18.3133 78.8404 18.2982 79.0361 18.3133C71.4006 11.3253 61.1596 7.10843 50 7.10843ZM87.5904 29.3976C87.7861 30.7681 87.9518 32.2741 87.9518 33.8554C87.9518 38.2078 87.1386 43.0422 84.6988 49.1566L71.5663 86.988C84.3072 79.5482 92.8916 65.8133 92.8916 50C92.8916 42.5452 90.9337 35.497 87.5904 29.3976ZM10.8434 32.5301C8.46386 37.8615 7.10843 43.7801 7.10843 50C7.10843 66.9729 17.0181 81.5964 31.3253 88.5542L10.8434 32.5301ZM50.7229 53.7349L37.9518 91.0843C41.7922 92.2139 45.7831 92.8916 50 92.8916C54.9849 92.8916 59.759 91.9277 64.2169 90.3615C64.1114 90.1807 64.0663 90.0904 63.9759 89.8795L50.7229 53.7349Z" fill="white"/>
</svg>
